<?xml version="1.0" encoding="UTF-8"?>
<svg width="116px" height="49px" viewBox="0 0 116 49" version="1.1" xmlns="http://www.w3.org/2000/svg" xmlns:xlink="http://www.w3.org/1999/xlink">
    <!-- Generator: Sketch 43.1 (39012) - http://www.bohemiancoding.com/sketch -->
    <title>logo</title>
    <desc>Created with Sketch.</desc>
    <defs></defs>
    <g id="Symbols" stroke="none" stroke-width="1" fill="none" fill-rule="evenodd">
        <g id="oasis-logo" transform="translate(-51.000000, -42.000000)" fill="#FFFFFF">
            <g id="Layer_1">
                <g id="logo" transform="translate(51.000000, 42.000000)">
                    <g id="Group">
                        <g transform="translate(17.956522, 7.650000)" id="Shape">
                            <path d="M1.05302174,9.1698 C1.35828261,9.03465 1.59428261,8.852325 1.79052174,8.648325 C3.82858696,6.457875 0.342456522,4.519875 1.45704348,2.360025 C2.44208696,0.64515 4.08382609,1.138575 4.39806522,1.263525 C3.83756522,1.5606 3.2013913,2.033625 3.04234783,2.994975 C2.79095652,4.70985 4.83671739,6.230925 3.97608696,8.007 C3.72597826,8.617725 2.79095652,9.7206 1.05302174,9.1698 L1.05302174,9.1698 Z"></path>
                            <path d="M6.99278261,9.1698 C7.29034783,9.03465 7.53019565,8.852325 7.72771739,8.648325 C9.76706522,6.457875 6.27580435,4.519875 7.39295652,2.360025 C8.37543478,0.64515 10.0184565,1.138575 10.3326957,1.263525 C9.77347826,1.5606 9.13602174,2.033625 8.97441304,2.994975 C8.72686957,4.70985 10.773913,6.230925 9.912,8.007 C9.65932609,8.617725 8.72302174,9.7206 6.99278261,9.1698 L6.99278261,9.1698 Z"></path>
                            <path d="M4.01969565,9.1698 C4.3211087,9.03465 4.56223913,8.852325 4.75847826,8.648325 C6.79397826,6.457875 3.30784783,4.519875 4.42371739,2.360025 C5.40876087,0.64515 7.04921739,1.138575 7.36473913,1.263525 C6.80552174,1.5606 6.16678261,2.033625 6.00517391,2.994975 C5.76147826,4.70985 7.8033913,6.230925 6.94532609,8.007 C6.69393478,8.617725 5.75763043,9.7206 4.01969565,9.1698 L4.01969565,9.1698 Z"></path>
                        </g>
                        <g transform="translate(15.391304, 17.850000)" id="Shape">
                            <path d="M1.23771739,3.0804 C1.50963043,3.270375 1.78282609,3.38895 2.06628261,3.4527 C4.98934783,4.11315 4.93419565,0.144075 7.375,0.02295 C9.36047826,0.0102 9.75167391,1.6728 9.80041304,2.00685 C9.26428261,1.6728 8.53191304,1.360425 7.61484783,1.70595 C5.99234783,2.346 5.69221739,4.8705 3.71828261,5.017125 C3.0538913,5.106375 1.62634783,4.85265 1.23771739,3.0804 L1.23771739,3.0804 Z"></path>
                            <path d="M4.20695652,8.1906 C4.47373913,8.3793 4.75334783,8.49405 5.0303913,8.56035 C7.95986957,9.224625 7.90343478,5.251725 10.3403913,5.131875 C12.3271522,5.12295 12.7196304,6.78045 12.7683696,7.120875 C12.2309565,6.78045 11.4973043,6.4719 10.5815217,6.814875 C8.96030435,7.45875 8.66273913,9.97815 6.68495652,10.124775 C6.02313043,10.214025 4.59045652,9.959025 4.20695652,8.1906 L4.20695652,8.1906 Z"></path>
                            <path d="M2.72297826,5.636775 C2.99232609,5.82675 3.26680435,5.93895 3.54641304,6.009075 C6.4746087,6.672075 6.41817391,2.6979 8.85897826,2.5755 C10.8444565,2.5653 11.2382174,4.229175 11.2843913,4.563225 C10.7482609,4.229175 10.0146087,3.91425 9.09626087,4.257225 C7.4788913,4.9011 7.17747826,7.4256 5.20226087,7.5735 C4.53786957,7.6602 3.10904348,7.409025 2.72297826,5.636775 L2.72297826,5.636775 Z"></path>
                        </g>
                        <g transform="translate(7.695652, 20.400000)" id="Shape">
                            <path d="M4.16847826,0.521475 C4.13384783,0.84915 4.17104348,1.1475 4.25313043,1.421625 C5.13813043,4.26615 8.56782609,2.23635 9.8966087,4.27125 C10.8996087,5.978475 9.64265217,7.14765 9.37843478,7.355475 C9.40280435,6.728175 9.3066087,5.93895 8.54986957,5.320575 C7.17747826,4.244475 4.83415217,5.249175 3.71315217,3.621 C3.30656522,3.096975 2.8166087,1.740375 4.16847826,0.521475 L4.16847826,0.521475 Z"></path>
                            <path d="M1.1941087,5.634225 C1.16717391,5.95935 1.20308696,6.2526 1.28517391,6.53055 C2.1688913,9.3789 5.605,7.342725 6.92736957,9.38145 C7.93165217,11.088675 6.67982609,12.254025 6.41304348,12.46185 C6.43228261,11.8371 6.33993478,11.04915 5.58319565,10.4295 C4.21336957,9.359775 1.86747826,10.3581 0.749043478,8.729925 C0.342456522,8.20845 -0.152630435,6.8493 1.1941087,5.634225 L1.1941087,5.634225 Z"></path>
                            <path d="M2.68193478,3.0804 C2.64986957,3.405525 2.6845,3.7026 2.76402174,3.971625 C3.65543478,6.819975 7.08897826,4.790175 8.41263043,6.830175 C9.41306522,8.5323 8.16252174,9.701475 7.89573913,9.91185 C7.9201087,9.280725 7.82391304,8.495325 7.06717391,7.8744 C5.69734783,6.80085 3.3476087,7.803 2.23686957,6.1761 C1.82771739,5.649525 1.33134783,4.29165 2.68193478,3.0804 L2.68193478,3.0804 Z"></path>
                        </g>
                        <g transform="translate(0.000000, 16.575000)" id="Shape">
                            <path d="M9.47976087,0.24735 C9.17963043,0.383775 8.93721739,0.564825 8.74097826,0.768825 C6.70034783,2.96055 10.1916087,4.899825 9.07830435,7.0584 C8.09454348,8.775825 6.45152174,8.27985 6.13343478,8.151075 C6.69393478,7.8591 7.33395652,7.380975 7.49428261,6.424725 C7.74182609,4.706025 5.69734783,3.188775 6.55541304,1.413975 C6.80552174,0.801975 7.7443913,-0.30345 9.47976087,0.24735 L9.47976087,0.24735 Z"></path>
                            <path d="M3.54256522,0.24735 C3.24371739,0.383775 3.00002174,0.564825 2.80378261,0.768825 C0.768282609,2.96055 4.25569565,4.899825 3.14623913,7.0584 C2.15991304,8.775825 0.513043478,8.27985 0.19623913,8.151075 C0.758021739,7.8591 1.39676087,7.380975 1.55836957,6.424725 C1.80976087,4.706025 -0.237282609,3.188775 0.618217391,1.413975 C0.872173913,0.801975 1.80976087,-0.30345 3.54256522,0.24735 L3.54256522,0.24735 Z"></path>
                            <path d="M6.51052174,0.24735 C6.2103913,0.383775 5.97182609,0.564825 5.77686957,0.768825 C3.73495652,2.96055 7.22621739,4.899825 6.10778261,7.0584 C5.12530435,8.775825 3.48228261,8.27985 3.16932609,8.151075 C3.72726087,7.8591 4.366,7.380975 4.52632609,6.424725 C4.77771739,4.706025 2.7281087,3.188775 3.59130435,1.413975 C3.84397826,0.801975 4.77771739,-0.30345 6.51052174,0.24735 L6.51052174,0.24735 Z"></path>
                        </g>
                        <g transform="translate(0.000000, 5.100000)" id="Shape">
                            <path d="M11.8679783,7.620675 C11.599913,7.4307 11.3228696,7.312125 11.0419783,7.245825 C8.11763043,6.582825 8.17406522,10.558275 5.73326087,10.678125 C3.74393478,10.6896 3.35658696,9.025725 3.30784783,8.691675 C3.84654348,9.025725 4.57378261,9.336825 5.49084783,8.99385 C7.11719565,8.35125 7.41476087,5.830575 9.38997826,5.680125 C10.0543696,5.595975 11.4831957,5.84715 11.8679783,7.620675 L11.8679783,7.620675 Z"></path>
                            <path d="M8.90515217,2.507925 C8.63452174,2.3205 8.35363043,2.204475 8.07658696,2.138175 C5.15352174,1.475175 5.2073913,5.450625 2.76402174,5.570475 C0.779826087,5.5794 0.387347826,3.915525 0.341173913,3.581475 C0.877304348,3.915525 1.61223913,4.229175 2.52930435,3.8862 C4.1453913,3.2436 4.44808696,0.722925 6.42073913,0.575025 C7.08641304,0.48195 8.5113913,0.7395 8.90515217,2.507925 L8.90515217,2.507925 Z"></path>
                            <path d="M10.384,5.0643 C10.1146522,4.87305 9.8376087,4.7583 9.56184783,4.692 C6.63236957,4.029 6.68880435,8.0019 4.248,8.120475 C2.25995652,8.13195 1.87132609,6.470625 1.82386957,6.13785 C2.35871739,6.470625 3.09365217,6.784275 4.01071739,6.43875 C5.63193478,5.797425 5.9295,3.27165 7.90728261,3.1263 C8.5691087,3.0396 9.99793478,3.293325 10.384,5.0643 L10.384,5.0643 Z"></path>
                        </g>
                        <g transform="translate(10.260870, 0.000000)" id="Shape">
                            <path d="M6.36815217,12.720675 C6.4015,12.391725 6.36430435,12.0972 6.28478261,11.82435 C5.39593478,8.974725 1.9611087,11.00835 0.63873913,8.9709 C-0.36426087,7.2624 0.887565217,6.09705 1.15819565,5.889225 C1.13126087,6.52035 1.22745652,7.304475 1.98419565,7.924125 C3.35530435,8.9964 5.69991304,7.9968 6.81706522,9.62115 C7.22365217,10.14645 7.72002174,11.501775 6.36815217,12.720675 L6.36815217,12.720675 Z"></path>
                            <path d="M9.3373913,7.607925 C9.36817391,7.2828 9.33097826,6.985725 9.2488913,6.71415 C8.3638913,3.8658 4.92906522,5.9007 3.60541304,3.856875 C2.60241304,2.15475 3.85808696,0.98685 4.12230435,0.7803 C4.10178261,1.4076 4.19669565,2.194275 4.95086957,2.813925 C6.32069565,3.884925 8.66786957,2.885325 9.78630435,4.509675 C10.1928913,5.03625 10.6866957,6.394125 9.3373913,7.607925 L9.3373913,7.607925 Z"></path>
                            <path d="M7.85597826,10.165575 C7.88291304,9.839175 7.84571739,9.543375 7.76619565,9.2718 C6.88247826,6.41835 3.44636957,8.45325 2.12143478,6.414525 C1.11843478,4.711125 2.37282609,3.540675 2.63704348,3.331575 C2.61395652,3.961425 2.71015217,4.75065 3.4656087,5.369025 C4.83671739,6.442575 7.1826087,5.437875 8.30104348,7.064775 C8.71147826,7.590075 9.20271739,8.9454 7.85597826,10.165575 L7.85597826,10.165575 Z"></path>
                        </g>
                    </g>
                    <g id="Group" transform="translate(32.065217, 5.100000)">
                        <path d="M19.3122391,5.300175 C17.2138913,3.285675 14.6268696,2.2644 11.6204348,2.2644 C8.61784783,2.2644 6.03980435,3.28695 3.95941304,5.304 C1.87132609,7.32105 0.813173913,9.816225 0.813173913,12.7194 C0.813173913,15.61365 1.87004348,18.103725 3.95684783,20.12205 C6.03595652,22.135275 8.61528261,23.15655 11.6204348,23.15655 C14.6294348,23.15655 17.2177391,22.135275 19.3122391,20.12205 C21.4054565,18.108825 22.4661739,15.61875 22.4661739,12.7194 C22.4661739,9.8124 21.4054565,7.31595 19.3122391,5.300175 L19.3122391,5.300175 Z M11.6768696,21.036225 C9.31173913,21.036225 7.28521739,20.22405 5.65373913,18.62265 C4.02226087,17.030175 3.19241304,15.04245 3.19241304,12.7194 C3.19241304,10.3887 4.02097826,8.3946 5.65373913,6.797025 C7.28906522,5.1969 9.31558696,4.384725 11.6768696,4.384725 C14.0266087,4.384725 16.0377391,5.1969 17.6576739,6.797025 C19.2724783,8.3946 20.0907826,10.38615 20.0907826,12.7194 C20.0907826,15.043725 19.2711957,17.030175 17.6576739,18.62265 C16.0403043,20.22405 14.0291739,21.036225 11.6768696,21.036225 L11.6768696,21.036225 Z" id="Shape"></path>
                        <path d="M52.1111087,12.684975 C51.4018261,12.299925 50.3128913,11.832 48.7763261,11.256975 C47.3462174,10.7202 46.4035,10.168125 45.9725435,9.6135 C45.554413,9.06525 45.3415,8.446875 45.3415,7.77495 C45.3415,6.82635 45.7070435,6.018 46.4240217,5.374125 C47.1448478,4.718775 48.0670435,4.387275 49.1623913,4.387275 C50.3218696,4.387275 51.7506957,4.87815 53.4065435,5.84205 L53.9144565,6.151875 L53.9542174,6.177375 L53.9542174,3.668175 L53.7682391,3.548325 C52.2073043,2.696625 50.6091739,2.265675 49.0187391,2.265675 C47.3628913,2.265675 45.9276522,2.811375 44.7527826,3.8862 C43.565087,4.971225 42.9635435,6.30105 42.9635435,7.84125 C42.9635435,8.95305 43.2162174,9.88125 43.7151522,10.60035 C44.1961304,11.3016 44.8002391,11.851125 45.5082391,12.238725 C46.1867391,12.608475 47.3038913,13.08915 48.8276304,13.666725 C50.291087,14.227725 51.2594565,14.8206 51.7160652,15.43005 C52.1649783,16.03695 52.3945652,16.72545 52.3945652,17.476425 C52.3945652,18.4722 52.0264565,19.32135 51.2992174,19.998375 C50.5604348,20.686875 49.6433696,21.036225 48.5762391,21.036225 C47.2487391,21.036225 45.6454783,20.3541 43.8087826,19.008975 L43.2726522,18.606075 L43.2328913,18.575475 L43.2328913,21.12675 L43.2598261,21.2874 L43.2623913,21.2976 L43.3906522,21.38175 C45.1747609,22.561125 46.9473261,23.157825 48.6608913,23.157825 C50.3539348,23.157825 51.8096957,22.60065 52.9871304,21.5016 C54.1696957,20.391075 54.7712391,19.014075 54.7712391,17.40885 C54.7712391,16.2027 54.5083043,15.2031 53.9926957,14.43555 C53.4783696,13.6731 52.8421957,13.085325 52.1111087,12.684975 L52.1111087,12.684975 Z" id="Shape"></path>
                        <rect id="Rectangle-path" x="57.2518043" y="2.520675" width="2.24969565" height="20.38725"></rect>
                        <path d="M72.6572174,14.43555 C72.1493043,13.68075 71.5169783,13.0917 70.7781957,12.684975 C70.0817391,12.307575 68.9889565,11.83965 67.4408478,11.256975 C66.0107391,10.721475 65.0680217,10.168125 64.6421957,9.6135 C64.2240652,9.066525 64.008587,8.449425 64.008587,7.77495 C64.008587,6.825075 64.3741304,6.018 65.0911087,5.374125 C65.8119348,4.718775 66.7341304,4.387275 67.8294783,4.387275 C68.9915217,4.387275 70.4177826,4.87815 72.0710652,5.84205 L72.622587,6.1761 L72.622587,3.668175 L72.4353261,3.548325 C70.8769565,2.696625 69.2788261,2.265675 67.6883913,2.265675 C66.0299783,2.265675 64.5947391,2.811375 63.4147391,3.8862 C62.2347391,4.973775 61.6357609,6.3036 61.6357609,7.84125 C61.6357609,8.954325 61.8858696,9.882525 62.3822391,10.60035 C62.8657826,11.302875 63.4698913,11.853675 64.1778913,12.238725 C64.8486957,12.60465 65.9671304,13.085325 67.502413,13.666725 C68.9607391,14.227725 69.9303913,14.821875 70.3857174,15.43005 C70.8346304,16.030575 71.0616522,16.719075 71.0616522,17.476425 C71.0616522,18.470925 70.6909783,19.3188 69.9624565,19.998375 C69.2313696,20.686875 68.3168696,21.036225 67.2446087,21.036225 C65.9248043,21.036225 64.3189783,20.352825 62.4771522,19.00515 L61.9384565,18.613725 L61.8986957,18.585675 L61.8986957,21.125475 L61.9333261,21.286125 L61.9358913,21.296325 L62.061587,21.380475 C63.8456957,22.55985 65.6182609,23.15655 67.3318261,23.15655 C69.0248696,23.15655 70.4831957,22.599375 71.6606304,21.500325 C72.8431957,20.391075 73.4447391,19.014075 73.4447391,17.407575 C73.4447391,16.20525 73.1792391,15.20565 72.6572174,14.43555 L72.6572174,14.43555 Z" id="Shape"></path>
                        <polygon id="Shape" points="32.2576087 1.018725 32.2358043 0.969 22.3635652 22.357125 22.1224348 22.85565 22.1031957 22.89135 24.5298913 22.89135 32.2229783 6.14805 39.8660435 22.731975 39.9417174 22.877325 39.9468478 22.89135 42.355587 22.89135 32.9951087 2.622675"></polygon>
                    </g>
                    <text id="HOTELS-&amp;-RESORTS" font-family="Helvetica" font-size="10.1812575" font-weight="normal">
                        <tspan x="13.6778674" y="47.805535">HOTELS &amp; RESORTS</tspan>
                    </text>
                </g>
            </g>
        </g>
    </g>
</svg>